<svg width="130" height="152" viewBox="0 0 130 152" fill="none" xmlns="http://www.w3.org/2000/svg">
<g filter="url(#filter0_d_94_225)">
<path d="M53.056 22.7434C53.056 21.1963 54.311 19.9348 55.8562 20.0121C63.7968 20.4095 71.5733 22.4932 78.6637 26.137C86.5858 30.2082 93.4231 36.1096 98.6083 43.3517C103.794 50.5938 107.177 58.9678 108.479 67.7792C109.781 76.5906 108.963 85.5853 106.093 94.0173C103.223 102.449 98.3844 110.076 91.9779 116.264C85.5713 122.452 77.7817 127.023 69.2552 129.598C60.7286 132.174 51.7109 132.679 42.95 131.072C35.1089 129.634 27.6758 126.541 21.1414 122.012C19.8698 121.131 19.6449 119.366 20.5887 118.14C21.5324 116.914 23.2871 116.693 24.5635 117.567C30.3885 121.556 36.9957 124.284 43.9606 125.562C51.8454 127.008 59.9614 126.553 67.6353 124.235C75.3091 121.917 82.3198 117.803 88.0857 112.234C93.8516 106.665 98.2065 99.8011 100.789 92.2123C103.372 84.6234 104.108 76.5282 102.937 68.5979C101.765 60.6677 98.7198 53.1311 94.0531 46.6132C89.3864 40.0953 83.2329 34.7841 76.103 31.12C69.8049 27.8834 62.9053 26.0144 55.8559 25.6224C54.3112 25.5365 53.056 24.2904 53.056 22.7434Z" fill="#007AFF"/>
</g>
<defs>
<filter id="filter0_d_94_225" x="0" y="0" width="129.089" height="152" filterUnits="userSpaceOnUse" color-interpolation-filters="sRGB">
<feFlood flood-opacity="0" result="BackgroundImageFix"/>
<feColorMatrix in="SourceAlpha" type="matrix" values="0 0 0 0 0 0 0 0 0 0 0 0 0 0 0 0 0 0 127 0" result="hardAlpha"/>
<feOffset/>
<feGaussianBlur stdDeviation="10"/>
<feColorMatrix type="matrix" values="0 0 0 0 0 0 0 0 0 0 0 0 0 0 0 0 0 0 0.14 0"/>
<feBlend mode="normal" in2="BackgroundImageFix" result="effect1_dropShadow_94_225"/>
<feBlend mode="normal" in="SourceGraphic" in2="effect1_dropShadow_94_225" result="shape"/>
</filter>
</defs>
</svg>
